Coordinates
version=1
nRows=17
nColumns=40
inDegrees=yes

Units are S.I. units (second, meters, Newtons, ...)
Angles are in degrees.

endheader
time	pelvis_tilt	pelvis_list	pelvis_rotation	pelvis_tx	pelvis_ty	pelvis_tz	hip_flexion_r	hip_adduction_r	hip_rotation_r	knee_angle_r	knee_angle_r_beta	ankle_angle_r	subtalar_angle_r	mtp_angle_r	hip_flexion_l	hip_adduction_l	hip_rotation_l	knee_angle_l	knee_angle_l_beta	ankle_angle_l	subtalar_angle_l	mtp_angle_l	lumbar_extension	lumbar_bending	lumbar_rotation	arm_flex_r	arm_add_r	arm_rot_r	elbow_flex_r	pro_sup_r	wrist_flex_r	wrist_dev_r	arm_flex_l	arm_add_l	arm_rot_l	elbow_flex_l	pro_sup_l	wrist_flex_l	wrist_dev_l
      8.28000000	     -2.85231567	     -4.41802979	      1.67405234	      0.69894241	      0.92518291	      0.51191670	     -0.44703552	      3.84460710	    -15.92448009	     12.69396370	     12.69396370	     18.08190401	     10.96833846	     -1.57022892	     29.42760312	     -9.90083798	     -4.77725810	     19.79131924	     19.79131924	      4.91021085	     -5.10074322	      6.08503960	     -8.83269870	      8.52209448	      2.81115106	     34.21740236	    -15.37338651	     -9.73837097	     86.54149766	     44.75134742	      0.00000000	      0.00000000	    -15.01066277	     -7.12591968	      0.17434929	     25.76443711	     45.66003008	      0.00000000	      0.00000000
      8.29400000	     -2.84161274	     -4.47441984	      1.29252512	      0.69891424	      0.92365177	      0.51028694	     -0.97954070	      3.79688501	    -15.46613037	     12.66496938	     12.66496938	     18.59287323	     10.94546593	     -1.63320256	     29.20583249	     -9.80214657	     -4.30433348	     20.95550291	     20.95550291	      4.71082461	     -5.95208083	      5.98652393	     -8.70907531	      8.43830631	      2.91099625	     34.07411825	    -15.24682477	     -9.43904801	     86.67927535	     44.74102954	      0.00000000	      0.00000000	    -15.19721434	     -7.03275415	      0.21146601	     25.84273317	     45.65022328	      0.00000000	      0.00000000
      8.30800000	     -2.89114810	     -4.57501317	      0.91942452	      0.69890156	      0.92193301	      0.50854087	     -1.39146666	      3.79233280	    -14.85994979	     12.72779240	     12.72779240	     19.13429624	     10.61283151	     -1.63765803	     29.06736329	     -9.69591350	     -3.64393948	     22.14628857	     22.14628857	      4.52682385	     -7.09447530	      5.89932816	     -8.55337552	      8.40834493	      2.95642731	     33.85766339	    -15.19621070	     -8.94497582	     86.79712385	     44.72780327	      0.00000000	      0.00000000	    -15.30640040	     -6.91915335	      0.26218307	     25.99651744	     45.63997667	      0.00000000	      0.00000000
      8.32200000	     -2.96488303	     -4.59558218	      0.53535532	      0.69895094	      0.92029486	      0.50669211	     -1.67608153	      3.68757064	    -14.01560335	     12.98399892	     12.98399892	     19.67378935	      9.89038070	     -1.52781783	     28.88750224	     -9.49160938	     -3.00622059	     23.21058498	     23.21058498	      4.43362539	     -8.27549019	      5.78371607	     -8.33354875	      8.27185776	      2.92975397	     33.49151032	    -15.22953939	     -8.21420906	     86.73984737	     44.71813380	      0.00000000	      0.00000000	    -15.23573448	     -6.87099126	      0.33861047	     26.17172911	     45.63061177	      0.00000000	      0.00000000
      8.33600000	     -2.86618946	     -4.51647891	      0.21316046	      0.69911890	      0.91902460	      0.50466406	     -2.18953768	      3.42530945	    -13.57928672	     13.18086003	     13.18086003	     20.15575332	      9.76319094	     -1.63052734	     28.53727064	     -9.27706836	     -2.82195556	     24.24716715	     24.24716715	      4.57925545	     -8.79153552	      5.55879375	     -8.35034135	      7.99279717	      2.87952184	     32.95144406	    -15.01236044	     -7.98995453	     86.55378765	     44.71685643	      0.00000000	      0.00000000	    -14.97236041	     -6.89302194	      0.35556717	     26.23918494	     45.63299134	      0.00000000	      0.00000000
      8.35000000	     -2.99211332	     -4.54759160	     -0.09566869	      0.69902096	      0.91748140	      0.50255277	     -2.18894556	      3.29613868	    -12.65454114	     13.83472254	     13.83472254	     20.70110466	      8.60259272	     -1.50772805	     28.57527362	     -9.08715413	     -2.25531560	     25.36180906	     25.36180906	      4.75177002	     -9.91707449	      5.34359672	     -8.12348752	      7.84559828	      2.82380103	     32.41680693	    -15.14028885	     -7.34760877	     86.14508455	     44.71878379	      0.00000000	      0.00000000	    -14.46219128	     -6.90898743	      0.43674401	     26.18280825	     45.63275244	      0.00000000	      0.00000000
      8.36400000	     -2.98248157	     -4.48512135	     -0.36875298	      0.69904724	      0.91645916	      0.50025776	     -2.36045964	      3.02662072	    -11.97363739	     14.44946358	     14.44946358	     21.14102683	      7.82815515	     -1.41029251	     28.43109439	     -8.85208349	     -1.96848656	     26.34292257	     26.34292257	      5.11336410	    -10.69652584	      5.06815980	     -8.06087166	      7.59308446	      2.69298792	     31.70633999	    -15.14547176	     -6.84599211	     85.68998118	     44.72414281	      0.00000000	      0.00000000	    -13.80880099	     -6.97874728	      0.50032294	     26.10440664	     45.63794994	      0.00000000	      0.00000000
      8.37800000	     -2.99293494	     -4.38326215	     -0.59606203	      0.69908396	      0.91572016	      0.49777794	     -2.41425837	      2.67784190	    -11.36452073	     15.23509259	     15.23509259	     21.49638249	      7.05829582	     -1.32925055	     28.29806893	     -8.57102528	     -1.76421503	     27.20631874	     27.20631874	      5.57969503	    -11.41814303	      4.80367047	     -7.98802235	      7.29494278	      2.55701775	     30.81739597	    -15.17935750	     -6.36222924	     85.13232112	     44.73194082	      0.00000000	      0.00000000	    -12.98086659	     -7.06747480	      0.55542178	     26.01771991	     45.64789757	      0.00000000	      0.00000000
      8.39200000	     -2.97167231	     -4.24014341	     -0.79179165	      0.69912945	      0.91537232	      0.49508665	     -2.43029616	      2.24504848	    -10.89171583	     16.14230380	     16.14230380	     21.73341329	      6.36635505	     -1.28250890	     28.09674206	     -8.24868148	     -1.65246725	     27.93999379	     27.93999379	      6.12769603	    -12.05727776	      4.55938440	     -7.95174905	      6.98130785	      2.40888822	     29.74313195	    -15.19462077	     -5.90032327	     84.50465155	     44.74064857	      0.00000000	      0.00000000	    -12.02537236	     -7.18389274	      0.59450663	     25.95726820	     45.66260766	      0.00000000	      0.00000000
      8.40600000	     -2.86702864	     -4.19881016	     -0.88301427	      0.69935509	      0.91559725	      0.49226501	     -2.73948656	      1.92904268	    -10.66307180	     16.66839940	     16.66839940	     21.77728754	      6.18337657	     -1.32739027	     27.72120970	     -8.01834437	     -1.56207832	     28.45244432	     28.45244432	      6.75457219	    -12.41579286	      4.26498485	     -8.04424879	      6.77495090	      1.94145228	     28.58311595	    -14.89517961	     -5.61808667	     84.08196350	     44.74163007	      0.00000000	      0.00000000	    -11.08001579	     -7.24313165	      0.61219389	     26.19705588	     45.67710532	      0.00000000	      0.00000000
      8.42000000	     -2.94601425	     -3.92620067	     -1.10227029	      0.69927475	      0.91566648	      0.48930339	     -2.12942923	      1.22023384	    -10.18571469	     18.51536312	     18.51536312	     21.95906641	      5.27610763	     -1.55535715	     27.50377956	     -7.55083618	     -1.59710843	     28.88625651	     28.88625651	      7.28996447	    -13.08821693	      4.19310592	     -7.85899995	      6.36430344	      2.11043373	     27.09271675	    -15.31343388	     -5.07350640	     82.97147737	     44.76228616	      0.00000000	      0.00000000	     -9.78176793	     -7.46451872	      0.60793607	     26.07371706	     45.70633937	      0.00000000	      0.00000000
      8.43400000	     -2.92173136	     -3.75373372	     -1.24000436	      0.69937688	      0.91632154	      0.48619442	     -1.77808378	      0.61727435	     -9.94078872	     20.07072260	     20.07072260	     21.86426490	      4.78389842	     -1.83833006	     27.06356789	     -7.16100732	     -1.61419561	     29.09786792	     29.09786792	      7.84371176	    -13.51708426	      4.14357399	     -7.80996669	      6.08007141	      2.02256193	     25.57123253	    -15.43940656	     -4.61538679	     82.02805927	     44.77906160	      0.00000000	      0.00000000	     -8.49087267	     -7.59122721	      0.58978326	     26.05537004	     45.73685714	      0.00000000	      0.00000000
      8.44800000	     -2.90126314	     -3.59662363	     -1.37613143	      0.69953162	      0.91723053	      0.48298383	     -1.26533522	     -0.03363416	     -9.77562472	     21.90406712	     21.90406712	     21.59919578	      4.38603940	     -2.37197624	     26.52727471	     -6.77515715	     -1.67809964	     29.13642894	     29.13642894	      8.36493490	    -13.86632639	      4.13701088	     -7.75150307	      5.84469376	      1.94873509	     23.90356381	    -15.56150664	     -4.22208621	     80.96389894	     44.80086213	      0.00000000	      0.00000000	     -7.15907982	     -7.71970913	      0.52586526	     26.17244683	     45.77477668	      0.00000000	      0.00000000
      8.46200000	     -2.84627546	     -3.42720405	     -1.52276217	      0.69972567	      0.91835725	      0.47970925	     -0.60539754	     -0.75553066	     -9.62991983	     24.05106576	     24.05106576	     21.17316653	      3.99810522	     -3.12086137	     25.86932058	     -6.37752419	     -1.83073517	     29.03957656	     29.03957656	      8.83806641	    -14.13693791	      4.13802802	     -7.74575612	      5.62895735	      1.87132336	     22.12284783	    -15.62963796	     -3.88710891	     79.80445753	     44.82548480	      0.00000000	      0.00000000	     -5.84833443	     -7.89653859	      0.42298711	     26.47265384	     45.81696106	      0.00000000	      0.00000000
      8.47600000	     -2.87227376	     -3.28794274	     -1.63922489	      0.69982175	      0.91954257	      0.47628025	      0.24381024	     -1.49365715	     -9.58408666	     26.21102186	     26.21102186	     19.33365820	      3.34017725	     -7.38203004	     25.22519317	     -5.90741713	     -1.70659061	     28.78711963	     28.78711963	      9.32550096	    -14.64420152	      4.72247668	     -7.60374274	      5.47252076	      1.86210038	     20.38788019	    -15.66820277	     -3.75507931	     77.84184580	     44.91264044	      0.00000000	      0.00000000	     -4.23058301	     -7.86935807	     -0.31166648	     26.21260516	     45.97296631	      0.00000000	      0.00000000
      8.49000000	     -2.85685132	     -3.16705530	     -1.80135632	      0.69992655	      0.92074817	      0.47295046	      1.44166210	     -2.26382555	     -9.34317120	     29.16626889	     29.16626889	     18.40634589	      2.75585719	     -8.48008428	     24.49780592	     -5.56690150	     -1.92837556	     28.48907848	     28.48907848	      9.71825872	    -14.65555028	      4.63803237	     -7.55984190	      5.35736273	      1.85223450	     18.43159743	    -15.76382943	     -3.48976564	     76.52709652	     44.94381103	      0.00000000	      0.00000000	     -2.97651330	     -8.04008371	     -0.52854157	     27.00599004	     46.02798728	      0.00000000	      0.00000000
      8.50400000	     -2.77612512	     -3.05360645	     -1.94635733	      0.69999461	      0.92201144	      0.46954022	      2.77785906	     -3.08159269	     -9.12425207	     32.42930240	     32.42930240	     17.12602968	      2.11946941	     -9.77005986	     23.67079560	     -5.19572672	     -2.08641271	     28.13582676	     28.13582676	     10.06987881	    -14.74592329	      4.60060026	     -7.60787948	      5.29425254	      1.82786396	     16.44876671	    -15.76097296	     -3.27182895	     75.00698503	     44.98162238	      0.00000000	      0.00000000	     -1.66422563	     -8.23639907	     -0.73897035	     27.86735918	     46.08175130	      0.00000000	      0.00000000
